# xmcd CD database file
#
# Track frame offsets:
#	150
#	13611
#	26303
#	36730
#	48070
#	59956
#	72242
#	84640
#	94317
#	106767
#	118594
#	129934
#	141767
#	155269
#	167264
#	182071
#
# Disc length: 2619 seconds
#
# Revision: 0
# Processed by: cddbd v1.5.2PL0 Copyright (c) Steve Scherf et al.
# Submitted via: CDex 1.51
#
DISCID=d00a3910
DTITLE=Bobby Blue Bland - Farther Up The Road
DYEAR=1900
DGENRE=Blues
TTITLE0=Farther Up The Road
TTITLE1=Time Out
TTITLE2=Bobby's Blues
TTITLE3=You've Got Bad Intentions
TTITLE4=Don't Want No Woman
TTITLE5=It's My Life, Baby
TTITLE6=Woke Up Screaming
TTITLE7=Teach Me (How To Love You)
TTITLE8=I Learned My Lesson
TTITLE9=I Can't Put You Down Baby
TTITLE10=I Smell Trouble
TTITLE11=I Don't Believe
TTITLE12=No Blow, No Show
TTITLE13=Army Blues
TTITLE14=Lovin' Blues
TTITLE15=IOU Blues
EXTD=
EXTT0=
EXTT1=
EXTT2=
EXTT3=
EXTT4=
EXTT5=
EXTT6=
EXTT7=
EXTT8=
EXTT9=
EXTT10=
EXTT11=
EXTT12=
EXTT13=
EXTT14=
EXTT15=
PLAYORDER=
